<svg width="567" height="567" viewBox="0 0 567 567" fill="none" xmlns="http://www.w3.org/2000/svg">
<g opacity="0.05">
<path d="M375.874 269.561C377.256 233.844 371.256 198.227 358.248 164.934C345.24 131.642 325.504 101.391 300.274 76.0723L283.5 59.5348L266.726 76.0723C242.481 100.126 223.268 128.767 210.207 160.324C197.146 191.881 190.499 225.722 190.654 259.875C190.654 263.182 190.654 266.49 190.654 269.561C154.454 247.876 113.072 236.368 70.875 236.25H47.25V259.875C47.2493 318.442 69.0032 374.923 108.291 418.358C147.579 461.793 201.601 489.087 259.875 494.943V496.125H307.125V494.943C365.399 489.087 419.421 461.793 458.709 418.358C497.997 374.923 519.751 318.442 519.75 259.875V236.25H496.125C453.767 236.283 412.211 247.794 375.874 269.561ZM283.5 128.283C303.779 154.09 317.808 184.241 324.489 216.375C331.169 248.508 330.321 281.753 322.009 313.503C306.485 330.431 293.512 349.532 283.5 370.203C273.488 349.532 260.515 330.431 244.991 313.503C240.373 295.998 237.991 277.979 237.904 259.875C237.732 212.108 253.811 165.703 283.5 128.283ZM96.1538 285.153C137.191 290.683 175.277 309.537 204.557 338.817C233.837 368.098 252.691 406.183 258.221 447.221C217.184 441.691 179.098 422.837 149.818 393.557C120.538 364.277 101.684 326.191 96.1538 285.153ZM308.779 447.221C314.309 406.183 333.163 368.098 362.443 338.817C391.723 309.537 429.809 290.683 470.846 285.153C465.316 326.191 446.462 364.277 417.182 393.557C387.902 422.837 349.816 441.691 308.779 447.221Z" fill="#264065"/>
</g>
</svg>
